<svg width="40" height="40" viewBox="0 0 40 40" fill="none" xmlns="http://www.w3.org/2000/svg">
<path d="M16.5 25.834V24.834C15.9477 24.834 15.5 25.2817 15.5 25.834H16.5ZM23.5 25.834H24.5C24.5 25.2817 24.0523 24.834 23.5 24.834V25.834ZM16.5 26.834H23.5V24.834H16.5V26.834ZM22.5 25.834V27.0007H24.5V25.834H22.5ZM17.5 27.0007V25.834H15.5V27.0007H17.5ZM20 29.5007C18.6193 29.5007 17.5 28.3814 17.5 27.0007H15.5C15.5 29.4859 17.5147 31.5007 20 31.5007V29.5007ZM22.5 27.0007C22.5 28.3814 21.3807 29.5007 20 29.5007V31.5007C22.4853 31.5007 24.5 29.4859 24.5 27.0007H22.5Z" fill="#2D5A81"/>
<path d="M11.0087 23.1583L10.3016 22.4512H10.3016L11.0087 23.1583ZM11.6047 22.5624L12.3118 23.2695L12.3118 23.2695L11.6047 22.5624ZM28.396 22.5623L29.1031 21.8552V21.8552L28.396 22.5623ZM28.992 23.1583L29.6991 22.4512L29.6991 22.4512L28.992 23.1583ZM20.0003 9.5L20.0003 10.5L20.0003 9.5ZM28.167 24.8334H11.8337V26.8334H28.167V24.8334ZM11.667 24.6667V23.9833H9.66699V24.6667H11.667ZM11.7158 23.8654L12.3118 23.2695L10.8976 21.8552L10.3016 22.4512L11.7158 23.8654ZM12.8337 22.0095V17.6667H10.8337V22.0095H12.8337ZM27.167 17.6667V22.0095H29.167V17.6667H27.167ZM27.6889 23.2694L28.2848 23.8654L29.6991 22.4512L29.1031 21.8552L27.6889 23.2694ZM28.3337 23.9833V24.6667H30.3337V23.9833H28.3337ZM28.2848 23.8654C28.3161 23.8967 28.3337 23.9391 28.3337 23.9833H30.3337C30.3337 23.4086 30.1054 22.8575 29.6991 22.4512L28.2848 23.8654ZM27.167 22.0095C27.167 22.482 27.3547 22.9352 27.6889 23.2694L29.1031 21.8552C29.144 21.8961 29.167 21.9516 29.167 22.0095H27.167ZM29.167 17.6667C29.167 12.604 25.0629 8.49999 20.0003 8.5L20.0003 10.5C23.9584 10.5 27.167 13.7086 27.167 17.6667H29.167ZM12.8337 17.6667C12.8337 13.7086 16.0423 10.5 20.0003 10.5L20.0003 8.5C14.9377 8.50001 10.8337 12.6041 10.8337 17.6667H12.8337ZM12.3118 23.2695C12.6459 22.9353 12.8337 22.4821 12.8337 22.0095H10.8337C10.8337 21.9516 10.8566 21.8962 10.8976 21.8552L12.3118 23.2695ZM11.667 23.9833C11.667 23.9391 11.6846 23.8967 11.7158 23.8654L10.3016 22.4512C9.89527 22.8575 9.66699 23.4086 9.66699 23.9833H11.667ZM11.8337 24.8334C11.7416 24.8334 11.667 24.7587 11.667 24.6667H9.66699C9.66699 25.8633 10.637 26.8334 11.8337 26.8334V24.8334ZM28.167 26.8334C29.3636 26.8334 30.3337 25.8633 30.3337 24.6667H28.3337C28.3337 24.7587 28.259 24.8334 28.167 24.8334V26.8334Z" fill="#2D5A81"/>
</svg>
